<svg xmlns="http://www.w3.org/2000/svg" width="92" height="92.006" viewBox="0 0 92 92.006">
  <g id="Group_20810" data-name="Group 20810" transform="translate(-49.013 -24.584)">
    <path id="Path_8642" data-name="Path 8642" d="M105.342,61.619c1.026-1.191,1.9-2.185,2.743-3.2a1.727,1.727,0,0,0,.234-.666c.03-.116-.014-.25.008-.369.666-3.653-1.043-6.65-2.705-9.641a1.681,1.681,0,0,1,.065-1.93,6.775,6.775,0,0,1,4.6-3.286l1-.2v-3c1.893.1,3.765.115,5.619.3a19.079,19.079,0,0,1,7.169,2.028c2.041,1.093,2.242,1.581,1.97,3.89a17.165,17.165,0,0,1-2.537,7.177,2.285,2.285,0,0,0-.323,1.108c-.031,1.421-.357,2.973.1,4.229s1.716,2.217,2.638,3.3c3.275,3.83,6.618,7.6,9.822,11.492,5.744,6.974,6.78,14.649,3.153,22.938-.049.111-.1.219.056.219.629.975,1.314,1.92,1.859,2.941a2.341,2.341,0,0,1,.125,1.45c-1.28,6.388-4.352,11.5-10.42,14.435a16.189,16.189,0,0,1-7.046,1.741q-37.2.037-74.46.015V63.4l5.823-1.1v-8h2.992v7.425l2.965-.537V31.667l8.933,1.654V27.563h2.959v6.32l2.963.554V24.584h2.967V34.992l8.9,1.678V51.139l2.97.558V45.372h2.995v6.889l2.932.545V39.457h2.959v13.9l5.969,1.137Zm12.23,43.1c1.546,0,3.093.03,4.638-.006a10.146,10.146,0,0,0,7.665-3.555c.961-1.089,1.82-2.272,2.821-3.321a18.134,18.134,0,0,1,2.041-1.554,3.774,3.774,0,0,0,1.032-.953,17.786,17.786,0,0,0-1.807-19.978c-4.132-4.968-8.385-9.835-12.606-14.728a1.381,1.381,0,0,0-.923-.423q-4.684-.046-9.369,0a1.382,1.382,0,0,0-.924.423c-4.221,4.893-8.464,9.768-12.611,14.724a17.921,17.921,0,0,0-1.114,21.18c.439.657.867.9,1.583.417a22.871,22.871,0,0,1,11.31-3.991,57.6,57.6,0,0,1,6.95-.055,4.349,4.349,0,0,1,3.934,4.134,4.925,4.925,0,0,1-3.755,5.082c-1.322.306-2.67.5-4.011.713-.655.1-1.187.325-1.1,1.077.077.687.618.829,1.239.823C114.232,104.71,115.9,104.72,117.572,104.718ZM87.514,98.977,51.968,94.534v19.041H87.514Zm-14.848-4.85V61.98l-20.7,3.883V91.534Zm8.981-41.06V95.249l11.371,1.416a21.162,21.162,0,0,1-1.731-15.627l-.735-.144V78A4.811,4.811,0,0,1,91.31,78c.818.139,1.25-.193,1.612-.954a11.123,11.123,0,0,1,1.8-2.893,5.461,5.461,0,0,0,1.74-4.883c-.007-.042.061-.1.121-.185a9.012,9.012,0,0,1,1.261.01,1.841,1.841,0,0,0,1.859-.868c.71-.933,1.522-1.787,2.274-2.689a1.336,1.336,0,0,0,.387-.693c.028-2.617.017-5.235.017-7.9Zm-5.96,5.33v36.1l2.968.378V49.5l5.865,1.07V39.126L63.843,35.251V60.61ZM99.419,113.61c8.158,0,16.193.031,24.228-.022a13.263,13.263,0,0,0,5.775-1.526c4.956-2.446,7.4-6.7,8.553-11.881a1.067,1.067,0,0,0-1.267-1.356,3.88,3.88,0,0,0-1.792,1c-.97.991-1.784,2.131-2.7,3.177a13.192,13.192,0,0,1-10.282,4.689c-3.122.015-6.245.006-9.367,0a3.912,3.912,0,1,1-.606-7.8c1.159-.18,2.318-.365,3.471-.577a2.047,2.047,0,0,0,1.792-2.127c-.088-.938-.732-1.371-2.048-1.371-1.484,0-2.969-.031-4.452.013a20.531,20.531,0,0,0-10.728,3.348,1.17,1.17,0,0,0-.551.738C99.41,104.452,99.419,108.991,99.419,113.61Zm-3.013-.006V100.092l-5.834-.735V113.6ZM114.323,42.39a24.259,24.259,0,0,0,2.061,8.271.868.868,0,0,0,.967.625c.956-.048,1.917-.044,2.874,0a1,1,0,0,0,1.029-.572,13.175,13.175,0,0,0,1.834-5.579,1.066,1.066,0,0,0-.458-.844A20.218,20.218,0,0,0,114.323,42.39ZM111.33,57.143h8.8V54.308h-8.8Zm1.955-5.872-1.724-5.923a3.477,3.477,0,0,0-2.617,1.116.968.968,0,0,0-.171.854c.547,1.207,1.156,2.386,1.776,3.558a.789.789,0,0,0,.539.377C111.817,51.3,112.551,51.271,113.285,51.271Z" fill="#010201"/>
    <path id="Path_8643" data-name="Path 8643" d="M252.516,212.733c-1.67,0-3.34-.009-5.009.006-.621.006-1.162-.136-1.239-.823-.084-.752.448-.975,1.1-1.077,1.342-.209,2.69-.407,4.011-.713a4.925,4.925,0,0,0,3.755-5.082,4.349,4.349,0,0,0-3.934-4.134,57.6,57.6,0,0,0-6.95.055,22.871,22.871,0,0,0-11.31,3.991c-.717.483-1.144.239-1.583-.417a17.921,17.921,0,0,1,1.114-21.18c4.147-4.956,8.39-9.831,12.611-14.724a1.382,1.382,0,0,1,.924-.423q4.684-.046,9.369,0a1.381,1.381,0,0,1,.923.423c4.221,4.893,8.474,9.76,12.606,14.728a17.786,17.786,0,0,1,1.807,19.978,3.774,3.774,0,0,1-1.032.953,18.13,18.13,0,0,0-2.041,1.554c-1,1.049-1.86,2.232-2.821,3.321a10.146,10.146,0,0,1-7.665,3.555C255.609,212.761,254.062,212.732,252.516,212.733Zm2.578-26.752c.211-2.958-.293-3.99-2.588-5.517a.924.924,0,0,1-.315-.655c-.036-.884-.015-1.77-.015-2.647h-3.015V180.1h-2.923c0,1.406,0,2.759,0,4.111a4.443,4.443,0,0,0,4.374,4.766,1.479,1.479,0,0,1,1.535,1.32,13.728,13.728,0,0,1,.014,1.8c-.88-.171-1.9-.069-2.292-.516a7.552,7.552,0,0,1-.945-2.559h-2.636c-.271,2.383.3,4.311,2.549,5.483a.975.975,0,0,1,.352.722c.042.88.016,1.763.016,2.616h2.983v-2.951h2.956c0-1.413,0-2.739,0-4.065a4.462,4.462,0,0,0-4.421-4.819,1.489,1.489,0,0,1-1.51-1.542c-.022-.453,0-.908,0-1.552.856.15,1.87.029,2.266.467a7.854,7.854,0,0,1,1,2.6Z" transform="translate(-134.944 -108.014)" fill="#f9cf1c"/>
    <path id="Path_8644" data-name="Path 8644" d="M96.482,311.259v14.6H60.936V306.816Z" transform="translate(-8.968 -212.282)" fill="#006b99"/>
    <path id="Path_8645" data-name="Path 8645" d="M81.63,207.616l-20.7-2.592V179.353l20.7-3.883Zm-8.915-22.1v-2.894H69.828v2.894Zm5.938,0v-2.894H75.766v2.894Zm-11.884,8.917v-2.894H63.9v2.894Zm5.965-2.888H69.842V194.4h2.891Zm5.93.008H75.788v2.843h2.875ZM63.88,203.3h2.875v-2.843H63.88Zm8.811.031v-2.872H69.852v2.872Zm3.058-.025h2.888v-2.855H75.749Zm-11.837-20.7v2.876h2.843v-2.876Z" transform="translate(-8.964 -113.49)" fill="#e5e8ec"/>
    <path id="Path_8646" data-name="Path 8646" d="M180.685,139.507l20.737,3.884c0,2.662.01,5.28-.017,7.9a1.336,1.336,0,0,1-.387.693c-.752.9-1.564,1.756-2.274,2.689a1.841,1.841,0,0,1-1.859.868,9.011,9.011,0,0,0-1.261-.01c-.059.088-.128.143-.121.185a5.461,5.461,0,0,1-1.74,4.883,11.123,11.123,0,0,0-1.8,2.893c-.362.761-.794,1.093-1.612.954a4.811,4.811,0,0,0-.758-.006v2.9l.735.144a21.162,21.162,0,0,0,1.731,15.627l-11.371-1.416Zm3,16.059v2.893h2.859v-2.893Zm8.813.018h-2.89v2.858h2.89Zm5.925-8.9h-2.865v2.833h2.865Zm-14.757,17.773v2.893h2.865v-2.893Zm0,8.908v2.893h2.865v-2.893Zm5.925-26.71v2.891h2.89v-2.891Zm-3.035.011h-2.892v2.87h2.892Z" transform="translate(-99.038 -86.44)" fill="#fde8a6"/>
    <path id="Path_8647" data-name="Path 8647" d="M120.692,90.769l-11.844,2.213V67.623L129.525,71.5V82.941l-5.865-1.07v45.374l-2.968-.378ZM111.8,77.638h2.869V74.8H111.8Zm8.849-2.848h-2.891v2.861h2.891Zm5.936,0H123.7v2.853h2.885Zm-14.75,8.886v2.864h2.831V83.68Zm5.9,2.882h2.891V83.694h-2.891Z" transform="translate(-45.005 -32.372)" fill="#cbd0d8"/>
    <path id="Path_8648" data-name="Path 8648" d="M252.386,329.743c0-4.619-.009-9.158.024-13.7a1.17,1.17,0,0,1,.551-.738,20.531,20.531,0,0,1,10.728-3.348c1.483-.044,2.968-.013,4.452-.013,1.317,0,1.961.433,2.048,1.371a2.047,2.047,0,0,1-1.792,2.128c-1.154.211-2.312.4-3.471.577a3.912,3.912,0,1,0,.607,7.8c3.123,0,6.245.013,9.367,0a13.192,13.192,0,0,0,10.282-4.689c.916-1.046,1.73-2.186,2.7-3.177a3.88,3.88,0,0,1,1.792-1,1.067,1.067,0,0,1,1.267,1.356c-1.15,5.181-3.6,9.435-8.553,11.881a13.263,13.263,0,0,1-5.775,1.526C268.58,329.774,260.544,329.743,252.386,329.743Z" transform="translate(-152.968 -216.134)" fill="#eeceb2"/>
    <path id="Path_8649" data-name="Path 8649" d="M222.525,340.526h-5.835V326.28l5.835.735Z" transform="translate(-126.12 -226.922)" fill="#e5e8ec"/>
    <path id="Path_8650" data-name="Path 8650" d="M312.526,96.428a20.218,20.218,0,0,1,8.305,1.9,1.066,1.066,0,0,1,.458.844,13.175,13.175,0,0,1-1.834,5.579,1,1,0,0,1-1.029.572c-.956-.043-1.918-.047-2.874,0a.868.868,0,0,1-.967-.625A24.259,24.259,0,0,1,312.526,96.428Z" transform="translate(-198.203 -54.038)" fill="#f9cf1c"/>
    <path id="Path_8651" data-name="Path 8651" d="M300.448,147.35v-2.835h8.8v2.835Z" transform="translate(-189.118 -90.207)" fill="#fee9a6"/>
    <path id="Path_8652" data-name="Path 8652" d="M294.521,114.286c-.734,0-1.467.026-2.2-.018a.789.789,0,0,1-.539-.377c-.62-1.172-1.228-2.352-1.776-3.558a.968.968,0,0,1,.171-.854,3.477,3.477,0,0,1,2.617-1.116Z" transform="translate(-181.236 -63.015)" fill="#f9cf1c"/>
    <path id="Path_8653" data-name="Path 8653" d="M309.125,213.212h-2.618a7.853,7.853,0,0,0-1-2.6c-.4-.438-1.41-.318-2.266-.467,0,.644-.018,1.1,0,1.552a1.489,1.489,0,0,0,1.51,1.542,4.462,4.462,0,0,1,4.421,4.819c0,1.325,0,2.651,0,4.065H306.22v2.951h-2.983c0-.853.026-1.736-.016-2.616a.976.976,0,0,0-.352-.722c-2.252-1.172-2.819-3.1-2.549-5.483h2.636a7.553,7.553,0,0,0,.945,2.559c.394.448,1.411.346,2.292.516a13.728,13.728,0,0,0-.014-1.8,1.479,1.479,0,0,0-1.535-1.32,4.444,4.444,0,0,1-4.374-4.766c0-1.352,0-2.7,0-4.111h2.923v-2.934h3.015c0,.876-.021,1.763.015,2.647a.924.924,0,0,0,.315.655C308.832,209.222,309.336,210.254,309.125,213.212Z" transform="translate(-188.975 -135.244)" fill="#010101"/>
    <path id="Path_8654" data-name="Path 8654" d="M99.715,207.207H96.828v-2.894h2.887Z" transform="translate(-35.964 -135.184)"/>
    <path id="Path_8655" data-name="Path 8655" d="M123.673,207.207h-2.887v-2.894h2.887Z" transform="translate(-53.984 -135.184)"/>
    <path id="Path_8656" data-name="Path 8656" d="M75.775,243.184H72.9V240.29h2.87Z" transform="translate(-17.971 -162.244)"/>
    <path id="Path_8657" data-name="Path 8657" d="M99.778,240.314v2.859H96.887v-2.859Z" transform="translate(-36.009 -162.263)"/>
    <path id="Path_8658" data-name="Path 8658" d="M123.751,240.346v2.843h-2.875v-2.843Z" transform="translate(-54.052 -162.287)"/>
    <path id="Path_8659" data-name="Path 8659" d="M72.829,279.132v-2.843H75.7v2.843Z" transform="translate(-17.913 -189.321)"/>
    <path id="Path_8660" data-name="Path 8660" d="M99.766,279.169H96.927V276.3h2.839Z" transform="translate(-36.039 -189.327)"/>
    <path id="Path_8661" data-name="Path 8661" d="M120.719,279.119v-2.855h2.888v2.855Z" transform="translate(-53.934 -189.303)"/>
    <path id="Path_8662" data-name="Path 8662" d="M72.961,204.271H75.8v2.876H72.961Z" transform="translate(-18.013 -135.153)"/>
    <path id="Path_8663" data-name="Path 8663" d="M192.78,204.3h2.859v2.893H192.78Z" transform="translate(-108.135 -135.175)"/>
    <path id="Path_8664" data-name="Path 8664" d="M219.567,204.374v2.858h-2.89v-2.858Z" transform="translate(-126.109 -135.23)"/>
    <path id="Path_8665" data-name="Path 8665" d="M243.549,168.481v2.833h-2.865v-2.833Z" transform="translate(-144.166 -108.233)"/>
    <path id="Path_8666" data-name="Path 8666" d="M192.7,240.191h2.865v2.893H192.7Z" transform="translate(-108.078 -162.17)"/>
    <path id="Path_8667" data-name="Path 8667" d="M192.7,276.134h2.865v2.893H192.7Z" transform="translate(-108.078 -189.205)"/>
    <path id="Path_8668" data-name="Path 8668" d="M216.611,168.364h2.89v2.891h-2.89Z" transform="translate(-126.06 -108.145)"/>
    <path id="Path_8669" data-name="Path 8669" d="M195.588,168.407v2.87H192.7v-2.87Z" transform="translate(-108.072 -108.177)"/>
    <path id="Path_8670" data-name="Path 8670" d="M120.757,99.425V96.588h2.869v2.837Z" transform="translate(-53.963 -54.158)"/>
    <path id="Path_8671" data-name="Path 8671" d="M147.689,96.54V99.4H144.8V96.54Z" transform="translate(-72.045 -54.122)"/>
    <path id="Path_8672" data-name="Path 8672" d="M171.656,96.554v2.853h-2.885V96.554Z" transform="translate(-90.077 -54.133)"/>
    <path id="Path_8673" data-name="Path 8673" d="M120.9,132.409h2.831v2.864H120.9Z" transform="translate(-54.069 -81.101)"/>
    <path id="Path_8674" data-name="Path 8674" d="M144.69,135.335v-2.868h2.891v2.868Z" transform="translate(-71.964 -81.145)"/>
  </g>
</svg>
