<svg xmlns="http://www.w3.org/2000/svg" width="103.845" height="70.824" viewBox="0 0 103.845 70.824">
  <g id="Group_20823" data-name="Group 20823" transform="translate(-605.918 -321.765)">
    <g id="Group_20821" data-name="Group 20821" transform="translate(605.918 321.765)">
      <path id="Path_8730" data-name="Path 8730" d="M667.546,395.035l-19.4-.009c-.412,0-.823-.009-1.234-.013a5.605,5.605,0,0,0-3.244-1.239,5.5,5.5,0,0,0-3.46,1.245,30.761,30.761,0,0,1-4.278-.179,8.578,8.578,0,0,1-7.064-7.426q-1.932-12.533-3.9-25.059-1.62-10.412-3.233-20.824a2.5,2.5,0,0,0-2.8-2.421c-2.717-.01-5.434,0-8.151,0-.194,0-.388.006-.582,0-.917-.046-1.464-.538-1.44-1.291a1.281,1.281,0,0,1,1.44-1.217c3.032-.012,6.065-.045,9.1.01a4.954,4.954,0,0,1,4.891,4.418c.632,4.167,1.283,8.331,1.93,12.5.026.167.081.329.123.494q.357,2.36.713,4.721c.5,3.292.99,6.585,1.5,9.875.464,3,.945,6,1.421,9.007q.692,4.357,1.39,8.712c.337,3.312,2.087,5.452,5.014,6.062a8.952,8.952,0,0,0,1.809.115q21.722.009,43.444-.006a1.884,1.884,0,0,1,1.786.844v.874a1.906,1.906,0,0,1-1.8.82c-2.422-.014-4.844.015-7.266.027C672.016,393.322,670,393.313,667.546,395.035Z" transform="translate(-608.763 -332.878)" fill="#577782"/>
      <path id="Path_8731" data-name="Path 8731" d="M703.639,457.5q-.7-4.356-1.39-8.712c-.477-3-.957-6-1.421-9.007-.509-3.29-1-6.583-1.5-9.875q-.357-2.36-.713-4.721c2.227,0,4.455.008,6.682-.01a2.237,2.237,0,0,0,.677-.239c.176.084.352.24.529.241,1.488.011,2.977-.007,4.465-.016l9.063,0,5.371,0q7.1.012,14.193.022c2.159,0,4.318-.017,6.477-.027q2.837.015,5.674.029a2.439,2.439,0,0,1,2.679,2.656q.012,11.643,0,23.286a6.17,6.17,0,0,1-6.467,6.371Q725.8,457.5,703.639,457.5Zm9.778-11.193c-2.028,0-3.99,0-5.952,0-.944,0-1.459.452-1.455,1.242s.525,1.231,1.467,1.235c1.723.006,3.445,0,5.168,0h.807c0,1.3-.014,2.484,0,3.67a1.2,1.2,0,0,0,1.265,1.285,1.244,1.244,0,0,0,1.205-1.365c.016-1.179,0-2.359,0-3.54h9.923c0,1.138,0,2.227,0,3.316,0,1.03.474,1.607,1.282,1.588.792-.018,1.2-.542,1.2-1.572,0-1.108,0-2.216,0-3.336h9.938c0,.335,0,.623,0,.91.017.994,0,1.99.071,2.979a1.073,1.073,0,0,0,1.138,1.012,1.13,1.13,0,0,0,1.23-.913,3.55,3.55,0,0,0,.081-.863c.009-1.035,0-2.07,0-3.172h.872c2.111,0,4.222,0,6.333,0,.933,0,1.456-.466,1.449-1.253s-.522-1.221-1.474-1.224c-1.99-.005-3.979,0-5.969,0h-1.157v-9.927h.84c2.086,0,4.173.006,6.26,0,.97,0,1.516-.491,1.5-1.3-.017-.784-.51-1.182-1.5-1.185-2.111-.006-4.222,0-6.333,0-.255,0-.511-.021-.733-.031a1.151,1.151,0,0,1-.071-.226q-.009-1.419-.011-2.838c0-1.287-.428-1.91-1.292-1.89-.816.019-1.229.646-1.232,1.879,0,1.01,0,2.021,0,3.047h-9.94c0-1.245.014-2.431,0-3.616A1.179,1.179,0,0,0,727,428.935c-.719.053-1.135.549-1.145,1.415-.013,1.156,0,2.313,0,3.489h-9.923v-2.372c0-1.982-.28-2.545-1.263-2.538-.949.007-1.219.56-1.219,2.5v2.466h-.87c-2.572,0-5.144-.008-7.716.005a1.194,1.194,0,0,0-1.324,1.419c.092.678.611,1.056,1.5,1.058,2.5.007,5,0,7.5,0h.878Z" transform="translate(-681.135 -404.046)" fill="#3c97d2"/>
      <path id="Path_8732" data-name="Path 8732" d="M856.977,342.34c-2.159.01-4.318.028-6.477.027q-7.1,0-14.193-.022c.309-1.187.583-2.385.935-3.559.79-2.637,1.615-5.264,2.434-7.892q1.369-4.391,2.754-8.778c2.571.783,5.143,1.56,7.711,2.352q4.894,1.509,9.781,3.039c1.087.34,1.353.838,1.023,1.918Q858.97,335.885,856.977,342.34Zm-10.571-12.492c-.862-.032-1.279.285-1.476.88-.228.688-.428,1.386-.637,2.08a1.271,1.271,0,0,0,.946,1.847q3.388,1.074,6.786,2.111a1.229,1.229,0,0,0,1.711-.87c.239-.684.448-1.38.642-2.078.281-1.012.026-1.5-.973-1.819-1.772-.57-3.549-1.123-5.327-1.674C847.459,330.133,846.829,329.969,846.406,329.849Z" transform="translate(-792.039 -321.234)" fill="#fe5364"/>
      <path id="Path_8733" data-name="Path 8733" d="M771.175,338.8l-9.063,0q0-10.536.009-21.071l16.252-.013c.12,0,.241.016.361.025a3.361,3.361,0,0,0-1.766,2.236c-.373,1.309-.839,2.592-1.264,3.886-2.37,0-4.74-.02-7.11-.007a1.341,1.341,0,0,0-1.514,1.521c0,.653,0,1.306,0,1.959,0,1.094.482,1.577,1.6,1.582,1.838.008,3.676,0,5.514-.006Z" transform="translate(-732.278 -317.688)" fill="#894b9c"/>
      <path id="Path_8734" data-name="Path 8734" d="M808.7,338.7l3.019-9.893,1.509-5.048c.426-1.294.891-2.577,1.264-3.886a3.361,3.361,0,0,1,1.766-2.236,7.833,7.833,0,0,1,3.936.831q-1.377,4.389-2.754,8.778c-.82,2.628-1.644,5.255-2.434,7.892-.352,1.174-.626,2.372-.935,3.559Z" transform="translate(-769.801 -317.586)" fill="#de4d61"/>
      <path id="Path_8735" data-name="Path 8735" d="M741.422,317.616q0,10.536-.009,21.071c-1.489.009-2.977.026-4.465.016-.177,0-.353-.157-.529-.241q0-9.042,0-18.085a2.506,2.506,0,0,1,2.831-2.8C739.972,317.575,740.7,317.6,741.422,317.616Z" transform="translate(-711.579 -317.577)" fill="#3d324c"/>
      <path id="Path_8736" data-name="Path 8736" d="M763.578,631.829a5.5,5.5,0,0,1,3.46-1.245,5.6,5.6,0,0,1,3.244,1.239,4.976,4.976,0,0,1,1.229,5.6,4.954,4.954,0,0,1-8.92.519,4.757,4.757,0,0,1,.257-5.215A10.854,10.854,0,0,1,763.578,631.829Z" transform="translate(-732.133 -569.689)" fill="#3c97d2"/>
      <path id="Path_8737" data-name="Path 8737" d="M904.23,631.755c2.457-1.721,4.47-1.713,6.711.029a4.973,4.973,0,1,1-7.147.457C903.935,632.076,904.085,631.917,904.23,631.755Z" transform="translate(-845.447 -569.598)" fill="#3c97d2"/>
      <path id="Path_8738" data-name="Path 8738" d="M733.742,462.743v-9.927h-.878c-2.5,0-5,0-7.5,0-.891,0-1.409-.381-1.5-1.058a1.194,1.194,0,0,1,1.325-1.419c2.572-.013,5.144-.005,7.716-.005h.87v-2.465c0-1.936.27-2.489,1.219-2.5.983-.007,1.263.556,1.263,2.538v2.372h9.923c0-1.177-.01-2.333,0-3.489.01-.866.426-1.362,1.145-1.415a1.179,1.179,0,0,1,1.328,1.279c.018,1.185,0,2.371,0,3.616h9.94c0-1.026,0-2.036,0-3.047,0-1.233.416-1.86,1.232-1.879.864-.021,1.29.6,1.292,1.89q0,1.419.011,2.838a1.161,1.161,0,0,0,.071.226c.223.01.478.031.734.031,2.111,0,4.222,0,6.333,0,.993,0,1.486.4,1.5,1.185.017.8-.529,1.291-1.5,1.3-2.086.009-4.173,0-6.26,0h-.84v9.927h1.157c1.989,0,3.979,0,5.969,0,.953,0,1.467.438,1.474,1.224s-.516,1.25-1.449,1.253c-2.111.007-4.222,0-6.333,0h-.872c0,1.1.005,2.137,0,3.172a3.55,3.55,0,0,1-.081.863,1.13,1.13,0,0,1-1.23.913,1.073,1.073,0,0,1-1.138-1.012c-.075-.989-.054-1.986-.071-2.979,0-.288,0-.576,0-.91h-9.938c0,1.12,0,2.228,0,3.336,0,1.03-.407,1.554-1.2,1.572-.808.019-1.278-.558-1.282-1.588,0-1.089,0-2.178,0-3.316h-9.923c0,1.181.012,2.361,0,3.54a1.244,1.244,0,0,1-1.205,1.365,1.2,1.2,0,0,1-1.265-1.285c-.019-1.186,0-2.372,0-3.67h-.807c-1.723,0-3.445,0-5.168,0-.943,0-1.464-.452-1.468-1.235s.512-1.239,1.455-1.242C729.753,462.739,731.714,462.743,733.742,462.743Zm14.978-9.892V462.7H758.6v-9.851Zm-12.407,0v9.841h9.81v-9.841Z" transform="translate(-701.46 -420.487)" fill="#fcfdfe"/>
      <path id="Path_8739" data-name="Path 8739" d="M879,361.849c.423.12,1.052.285,1.673.477,1.778.551,3.555,1.1,5.327,1.673,1,.321,1.254.807.973,1.819-.194.7-.4,1.394-.642,2.078a1.229,1.229,0,0,1-1.711.87q-3.4-1.039-6.786-2.111a1.271,1.271,0,0,1-.946-1.847c.209-.694.409-1.392.637-2.08C877.726,362.134,878.142,361.816,879,361.849Z" transform="translate(-824.637 -353.234)" fill="#efc21a"/>
      <path id="Path_8740" data-name="Path 8740" d="M796.259,349.26l-1.509,5.048c-1.838,0-3.676.014-5.514.006-1.119,0-1.6-.489-1.6-1.582,0-.653,0-1.306,0-1.959a1.341,1.341,0,0,1,1.514-1.521C791.518,349.24,793.889,349.255,796.259,349.26Z" transform="translate(-752.834 -343.086)" fill="#b297c8"/>
      <path id="Path_8741" data-name="Path 8741" d="M851.686,483.937h9.875v9.851h-9.875Z" transform="translate(-804.426 -451.572)" fill="#3d98d3"/>
      <path id="Path_8742" data-name="Path 8742" d="M787.912,483.916h9.81v9.841h-9.81Z" transform="translate(-753.059 -451.555)" fill="#3b97d2"/>
    </g>
    <g id="Group_20822" data-name="Group 20822" transform="translate(671.783 325.041)">
      <path id="Path_8743" data-name="Path 8743" d="M964.575,396.938h-3.147c1.255,1.719,2.365,3.194,3.427,4.7a16.587,16.587,0,0,1-.383,19.689,19.63,19.63,0,0,1-27.193,3.832c-5.935-4.413-8.4-10.313-6.949-17.675a18.334,18.334,0,0,1,3.807-7.521c1.2-1.571,2.578-3.065,2.668-5.255-2.026-1.856-2.214-3.457-.608-5.879a3.966,3.966,0,0,1-.04-5.367c-1.727-2.458-1.238-4.54,1.443-6.043a6.344,6.344,0,0,1-2.746-5.391c-.048-1.052.342-1.489,1.382-1.5s2.078,0,3.343,0c-.728-1.4-1.359-2.65-2.031-3.882-.7-1.281-.3-2.035,1.136-2.051,5.245-.061,10.49-.134,15.734-.153a2.314,2.314,0,0,1,1.54.54c.512.531.035,1.137-.286,1.67-.754,1.25-1.495,2.508-2.314,3.886.656,0,1.089-.025,1.519,0a4.7,4.7,0,0,1,4.159,2.642c.331.657.563,1.364.865,2.038a1.5,1.5,0,0,0,.439.664,5.884,5.884,0,0,0,4.239.863C964.575,376.051,964.575,397.447,964.575,396.938ZM938.2,372.753h-1.009a3.388,3.388,0,0,0,1.24,2.474l2.418.849.2-.272-.2-.827C940.44,372.751,940.44,372.751,938.2,372.753Zm8.69-2.213c.309-1.265.8-2.486,1.225-3.759h-2.967c.125,1.025.261,1.989.349,2.957a3.9,3.9,0,0,1-.085,1.1,1.051,1.051,0,0,1-1.231.976c-.7-.092-.921-.577-.95-1.255-.04-.944-.152-1.887-.268-2.827a.965.965,0,0,0-1.259-.946,10.255,10.255,0,0,1-1.426.011c.138.334.222.577.336.805a30.024,30.024,0,0,1,2.841,9.027c.082.562.243.822.854.779.765-.054,1.537-.024,2.306-.03.09.016.181.035.272.047,1.879.253,1.919.2,2.36-1.674a29.733,29.733,0,0,1,3.294-8.271c.108-.185.214-.373.309-.565.024-.048,0-.118,0-.384a6.16,6.16,0,0,0-1.447.535,5.033,5.033,0,0,0-2.347,4.257c0,1.075-.366,1.406-1.457,1.333A1.747,1.747,0,0,1,946.888,370.54Zm17.657,8.5a9.139,9.139,0,0,1-6.08-1.655l-.719-1.308c-.591-2.8-2.161-3.858-4.951-3.31a.675.675,0,0,0-.435.363c-.214.6-.373,1.229-.552,1.846a4.037,4.037,0,0,0-.307,1.143,3.868,3.868,0,0,1-1.2,2.886,4.676,4.676,0,0,1-2.979.715c-2.826-.091-5.654-.146-8.48-.122a1.688,1.688,0,0,0-1.275.787c-.17.369.154.965.261,1.461a4.5,4.5,0,0,0,1.167.4c1.108.06,2.22.038,3.331.033.771,0,1.356.254,1.441,1.1.07.692-.524,1.152-1.467,1.167-1.048.017-2.1-.009-3.147.01a1.613,1.613,0,0,0-1.779,1.59,1.645,1.645,0,0,0,1.762,1.622c1.018.02,2.036,0,3.054.006s1.589.41,1.584,1.138-.544,1.082-1.619,1.086c-.987,0-1.975-.01-2.962,0a1.572,1.572,0,1,0,.026,3.1c1.573.016,3.147,0,4.72.006.983,0,1.5.4,1.48,1.124-.016.693-.565,1.093-1.528,1.1-1.265.007-2.531-.021-3.794.019a1.439,1.439,0,0,0-1.458,1.478,1.4,1.4,0,0,0,1.412,1.512c3.914-.036,7.829-.078,11.74-.227a5.915,5.915,0,0,0,2.625-.8,17.344,17.344,0,0,1,10.131-2.674v-15.6Zm-4.768,43.891a14.606,14.606,0,0,0,5.883-12.069,13.238,13.238,0,0,0-2.184-7.239c-1.358-2.049-2.853-4.007-4.37-6.119l-1.616.812-.769.314a20.7,20.7,0,0,1,1.76,3.734,10.674,10.674,0,0,1,.014,3.642c-.1.963-.723,1.4-1.406,1.171-.8-.263-.9-.862-.747-1.636a5.2,5.2,0,0,0-.716-4.336,2.446,2.446,0,0,0-2.658-1.083,57.187,57.187,0,0,1-6.807.447,1.254,1.254,0,0,0-1.283.774,11.46,11.46,0,0,0-1.182,5.822c.041.724-.257,1.239-1,1.3s-1.089-.456-1.21-1.135a1.168,1.168,0,0,1-.022-.369c.252-1.7.5-3.394.775-5.087a4.89,4.89,0,0,1,.3-.853l-.187-.179c-.471.464-1.114.848-1.377,1.409a20.494,20.494,0,0,0-1.185,3.46c-.225.855-.636,1.378-1.3,1.235-.834-.181-1.034-.786-.929-1.551a9.919,9.919,0,0,1,1.743-4.732l-1.958-1.151c-5.7,6.264-7.033,13.109-2.78,19.669a17.016,17.016,0,0,0,19.445,6.714A13.945,13.945,0,0,0,959.777,422.932Z" transform="translate(-929.924 -364.442)" fill="#2b4469"/>
      <path id="Path_8744" data-name="Path 8744" d="M967.244,506.1a15.163,15.163,0,0,1,.943,14.641,17.088,17.088,0,0,1-7.069,7.694,3.819,3.819,0,0,0-.569.537,17.016,17.016,0,0,1-19.445-6.714c-4.253-6.56-2.918-13.406,2.78-19.669l1.958,1.151a9.918,9.918,0,0,0-1.743,4.732c-.105.765.095,1.37.929,1.551.663.144,1.074-.38,1.3-1.235a20.493,20.493,0,0,1,1.185-3.46c.263-.561.906-.945,1.377-1.409l.187.179a4.9,4.9,0,0,0-.3.853c-.273,1.693-.523,3.39-.775,5.087a1.172,1.172,0,0,0,.022.369c.121.679.458,1.2,1.21,1.135s1.039-.576,1-1.3a11.463,11.463,0,0,1,1.182-5.822,1.254,1.254,0,0,1,1.283-.774,57.206,57.206,0,0,0,6.807-.447,2.446,2.446,0,0,1,2.658,1.083,5.2,5.2,0,0,1,.716,4.336c-.152.773-.058,1.373.747,1.636.684.224,1.306-.208,1.406-1.171a10.671,10.671,0,0,0-.014-3.642,20.7,20.7,0,0,0-1.76-3.734l.77-.314C965.1,502.962,966.259,504.481,967.244,506.1ZM952.28,517.516a1.034,1.034,0,0,0,1.191-1.021,1.447,1.447,0,0,1,1.028-1.382,1.345,1.345,0,0,1,1.686.918,1.3,1.3,0,0,1-.778,1.666,2.42,2.42,0,0,1-.805.166c-1.6.155.91,1.557.586,3.063-.337,1.566-3.486,2.839-2.1,3.718a1.867,1.867,0,0,1,.652.944c.2.59.5,1.01,1.16.987s.943-.42,1.082-1.053a1.49,1.49,0,0,1,.627-.85,3.8,3.8,0,0,0,1.865-2.731c.141-.843-.221-1.468-.922-1.55-.8-.092-1.155.359-1.283,1.115-.161.948-.783,1.478-1.555,1.347a1.326,1.326,0,0,1-1.22-1.392c-.014-.811.508-1.278,1.513-1.383,1.806-.189.192-2.236.532-3.9.311-1.522,2.445-2.094.929-3.012-.237-.143-.321-.518-.525-.741-.324-.354-.686-.924-1.04-.93a1.444,1.444,0,0,0-1.067.873,1.507,1.507,0,0,1-.821.98,3.439,3.439,0,0,0-1.749,2.879C951.276,517,951.567,517.458,952.28,517.516Z" transform="translate(-936.457 -467.52)" fill="#f9cf1c"/>
      <path id="Path_8745" data-name="Path 8745" d="M960.48,413.779a4.5,4.5,0,0,0,1.167.4c1.108.06,2.22.038,3.331.033.771,0,1.356.254,1.441,1.1.069.692-.524,1.152-1.467,1.167-1.048.017-2.1-.009-3.147.01a1.613,1.613,0,0,0-1.779,1.59,1.645,1.645,0,0,0,1.762,1.622c1.018.02,2.036,0,3.055.006s1.589.41,1.584,1.138-.544,1.082-1.619,1.086c-.987,0-1.975-.01-2.962,0a1.572,1.572,0,1,0,.026,3.1c1.573.016,3.147,0,4.72.006.983,0,1.5.4,1.48,1.124-.016.693-.565,1.093-1.528,1.1-1.265.007-2.531-.021-3.794.019a1.439,1.439,0,0,0-1.458,1.478,1.4,1.4,0,0,0,1.412,1.512c3.914-.036,7.829-.078,11.74-.227a5.915,5.915,0,0,0,2.625-.8,17.344,17.344,0,0,1,10.131-2.674V413.211a25.324,25.324,0,0,1-3.433-.477c-1.823-.5-2.509-1.5-2.647-3.415l-.719-1.308c-.255-.1-.5-.21-.765-.289a22.824,22.824,0,0,0-2.775-.788,14.659,14.659,0,0,0-2.4-.025,4.036,4.036,0,0,0-.307,1.143,3.868,3.868,0,0,1-1.2,2.886c.142,1,.051,2.03-.92,2.494a5.746,5.746,0,0,1-2.338.318C966.624,413.787,963.552,413.774,960.48,413.779Z" transform="translate(-952.58 -396.375)" fill="#f7b590"/>
      <path id="Path_8746" data-name="Path 8746" d="M1030.8,498.925c1.079,1.567,2.235,3.086,3.221,4.709a15.163,15.163,0,0,1,.943,14.641,17.087,17.087,0,0,1-7.069,7.694,3.824,3.824,0,0,0-.569.537,13.946,13.946,0,0,0,5.761-2.965,14.607,14.607,0,0,0,5.883-12.069,13.236,13.236,0,0,0-2.183-7.239c-1.358-2.049-2.853-4.007-4.37-6.119Z" transform="translate(-1003.235 -465.05)" fill="#f9cf1c"/>
      <path id="Path_8747" data-name="Path 8747" d="M979.1,379.717a1.747,1.747,0,0,1-.714-2.116c.309-1.265.8-2.486,1.225-3.759h-2.967c.124,1.025.261,1.989.349,2.957a3.9,3.9,0,0,1-.085,1.1,1.051,1.051,0,0,1-1.231.976c-.7-.092-.921-.577-.95-1.255-.04-.944-.152-1.887-.268-2.827a.964.964,0,0,0-1.258-.946,10.262,10.262,0,0,1-1.426.011c.138.334.222.577.336.805a30.027,30.027,0,0,1,2.841,9.027c.082.562.243.822.854.779.766-.054,1.537-.024,2.306-.03Q978.611,382.078,979.1,379.717Z" transform="translate(-961.427 -371.503)" fill="#e8b441"/>
      <path id="Path_8748" data-name="Path 8748" d="M960.919,426.162c3.072-.005,6.144.008,9.215-.029a5.745,5.745,0,0,0,2.338-.318c.971-.464,1.062-1.491.92-2.494a4.676,4.676,0,0,1-2.979.715c-2.826-.091-5.654-.146-8.48-.122a1.687,1.687,0,0,0-1.275.787C960.488,425.069,960.812,425.665,960.919,426.162Z" transform="translate(-953.02 -408.758)" fill="#e2a688"/>
      <path id="Path_8749" data-name="Path 8749" d="M998.385,379.015l-.988,4.722c.091.016.181.035.272.048,1.879.253,1.919.2,2.36-1.674a29.734,29.734,0,0,1,3.294-8.271c.108-.185.214-.372.309-.565a1.576,1.576,0,0,0,0-.384,6.161,6.161,0,0,0-1.447.535,5.033,5.033,0,0,0-2.347,4.257C999.839,378.758,999.476,379.089,998.385,379.015Z" transform="translate(-980.708 -370.801)" fill="#f9cf1c"/>
      <path id="Path_8750" data-name="Path 8750" d="M1045.313,416.772c.139,1.915.824,2.914,2.647,3.415a25.321,25.321,0,0,0,3.433.477v-2.237A9.139,9.139,0,0,1,1045.313,416.772Z" transform="translate(-1016.772 -403.828)" fill="#e3a788"/>
      <path id="Path_8751" data-name="Path 8751" d="M1018.4,399.886a14.652,14.652,0,0,1,2.4.025,22.824,22.824,0,0,1,2.775.788c.26.078.51.191.765.289-.591-2.8-2.161-3.858-4.951-3.31a.675.675,0,0,0-.435.363C1018.736,398.644,1018.577,399.269,1018.4,399.886Z" transform="translate(-996.515 -389.351)" fill="#e1a688"/>
      <path id="Path_8752" data-name="Path 8752" d="M962.953,400.266c-.409-2.227-.409-2.227-2.652-2.224h-1.009a3.388,3.388,0,0,0,1.24,2.474Z" transform="translate(-952.028 -389.731)" fill="#e2a688"/>
      <path id="Path_8753" data-name="Path 8753" d="M966.725,407.035l-2.421.25,2.418.849.2-.272Z" transform="translate(-955.8 -396.5)" fill="#ecaf8e"/>
      <path id="Path_8754" data-name="Path 8754" d="M996.973,546.961c-.005.775-.3,1.231-1.009,1.289a1.035,1.035,0,0,1-1.191-1.021,1.446,1.446,0,0,0-1.028-1.382,1.345,1.345,0,0,0-1.686.918,1.294,1.294,0,0,0,.778,1.666,2.421,2.421,0,0,0,.805.165,3.628,3.628,0,0,1,1.51,6.781,1.868,1.868,0,0,0-.652.944c-.2.59-.5,1.01-1.159.987s-.943-.42-1.082-1.053a1.49,1.49,0,0,0-.627-.85,3.8,3.8,0,0,1-1.865-2.731c-.141-.843.221-1.468.922-1.55.8-.092,1.155.359,1.283,1.115.161.948.783,1.478,1.555,1.347a1.326,1.326,0,0,0,1.22-1.392c.014-.811-.508-1.278-1.513-1.383a3.714,3.714,0,0,1-3.444-2.977,3.754,3.754,0,0,1,1.982-3.938c.236-.143.321-.518.525-.74.324-.354.686-.924,1.04-.93a1.444,1.444,0,0,1,1.067.873,1.508,1.508,0,0,0,.821.98A3.439,3.439,0,0,1,996.973,546.961Z" transform="translate(-974.931 -498.254)" fill="#2c4467"/>
    </g>
  </g>
</svg>
