<svg xmlns="http://www.w3.org/2000/svg" width="119.956" height="94.527" viewBox="0 0 119.956 94.527">
  <g id="Group_20819" data-name="Group 20819" transform="translate(-619.332 -315.014)">
    <g id="Layer_1" data-name="Layer 1" transform="translate(619.332 315.014)">
      <g id="Group_20817" data-name="Group 20817" transform="translate(0 0)">
        <path id="Path_8712" data-name="Path 8712" d="M638.225,450.545c0-1.325-.046-2.589.026-3.847a1.62,1.62,0,0,1,.563-1.2,1.565,1.565,0,0,1,1.3.259q5.171,3.622,10.281,7.329c1.394,1.013,1.437,2.429.042,3.456-3.455,2.543-6.958,5.023-10.469,7.49-.972.683-1.707.229-1.733-1.011-.026-1.263-.006-2.526-.006-3.769a8.489,8.489,0,0,0-10.181,5.919,8.35,8.35,0,0,0,5.982,10.272,11.147,11.147,0,0,0,2.666.294c4.5.029,9,.009,13.494.016,1.916,0,2.694.764,2.721,2.652.016,1.1.034,2.209-.005,3.311a2.152,2.152,0,0,1-2.448,2.395c-4.866.01-9.733.056-14.6-.017a16.9,16.9,0,0,1-16.472-15.323,16.72,16.72,0,0,1,13.924-17.851C634.862,450.653,636.465,450.671,638.225,450.545Z" transform="translate(-619.332 -402.683)" fill="#90c963"/>
        <path id="Path_8713" data-name="Path 8713" d="M897.551,483.362c3.876.434,7.033-.505,9.128-3.757a7.825,7.825,0,0,0,.358-8.377,8.042,8.042,0,0,0-7.258-4.465c-4.7-.1-9.4-.028-14.1-.034-2.071,0-2.792-.725-2.806-2.8-.007-1.022-.023-2.044,0-3.065.045-1.722.8-2.485,2.48-2.488,4.824-.009,9.648-.045,14.471.012a16.729,16.729,0,0,1,2.149,33.3,33.436,33.436,0,0,1-4.422.027c0,1.494.053,2.749-.028,4a1.838,1.838,0,0,1-.609,1.3c-.27.172-.946-.046-1.3-.293q-5.12-3.586-10.184-7.251c-1.437-1.037-1.484-2.511-.062-3.549,3.432-2.506,6.9-4.967,10.37-7.413,1.049-.739,1.781-.314,1.807,1C897.57,480.766,897.551,482.025,897.551,483.362Z" transform="translate(-796.477 -411.368)" fill="#4d9cd5"/>
        <path id="Path_8714" data-name="Path 8714" d="M871.421,320.586a3.638,3.638,0,0,1,.931-1.144c2.337-1.419,4.719-2.765,7.109-4.094a1.85,1.85,0,0,1,2.714.7,1.768,1.768,0,0,1-.766,2.513c-2.414,1.449-4.844,2.876-7.323,4.209C872.767,323.481,871.379,322.507,871.421,320.586Z" transform="translate(-788.789 -315.024)" fill="#9bb5cd"/>
        <path id="Path_8715" data-name="Path 8715" d="M706.656,320.64c-.009,1.87-1.375,2.816-2.636,2.137-2.514-1.354-4.981-2.8-7.426-4.274a1.745,1.745,0,0,1-.664-2.532,1.835,1.835,0,0,1,2.636-.654c2.39,1.328,4.775,2.67,7.107,4.1A3.875,3.875,0,0,1,706.656,320.64Z" transform="translate(-670.622 -315.014)" fill="#9bb5cd"/>
        <path id="Path_8716" data-name="Path 8716" d="M897.8,408.224c-1.386,0-2.771.023-4.156,0a1.865,1.865,0,0,1-1.913-1.805,1.829,1.829,0,0,1,1.842-1.885q4.278-.061,8.557,0a1.816,1.816,0,0,1,1.8,1.8,1.84,1.84,0,0,1-1.855,1.878C900.657,408.258,899.229,408.222,897.8,408.224Z" transform="translate(-802.443 -375.167)" fill="#99b4cd"/>
        <path id="Path_8717" data-name="Path 8717" d="M677.8,408.23c-1.345,0-2.69.02-4.034-.006a1.864,1.864,0,1,1,0-3.7q4.034-.031,8.068,0a1.864,1.864,0,1,1,0,3.706C680.486,408.243,679.141,408.23,677.8,408.23Z" transform="translate(-654.529 -375.169)" fill="#99b4cd"/>
      </g>
    </g>
    <g id="Layer_2" data-name="Layer 2" transform="translate(654.35 324.001)">
      <g id="Group_20818" data-name="Group 20818" transform="translate(0)">
        <path id="Path_8718" data-name="Path 8718" d="M772.083,385.5h-4.171c1.663,2.278,3.134,4.233,4.541,6.234a21.982,21.982,0,0,1-.507,26.093,26.014,26.014,0,0,1-36.037,5.079c-7.865-5.848-11.13-13.667-9.209-23.424.744-3.779,2.741-6.951,5.045-9.967,1.59-2.081,3.416-4.062,3.536-6.964-2.686-2.46-2.934-4.582-.805-7.791-1.915-2.349-1.836-4.751-.054-7.113-2.289-3.257-1.641-6.017,1.912-8.008-2.565-1.711-3.505-4.228-3.639-7.144-.064-1.395.453-1.973,1.832-1.989s2.754,0,4.43,0c-.965-1.849-1.8-3.512-2.692-5.145-.927-1.7-.395-2.7,1.506-2.718,6.95-.08,13.9-.177,20.852-.2a3.064,3.064,0,0,1,2.04.716c.679.7.047,1.507-.38,2.213-1,1.656-1.98,3.324-3.066,5.15.869,0,1.443-.034,2.012.006a6.224,6.224,0,0,1,5.512,3.5c.439.871.747,1.807,1.146,2.7a1.989,1.989,0,0,0,.582.88,7.8,7.8,0,0,0,5.617,1.143C772.083,357.817,772.083,386.172,772.083,385.5Zm-34.957-32.05h-1.337a4.49,4.49,0,0,0,1.643,3.279l3.2,1.126.268-.361-.265-1.1C740.1,353.442,740.1,353.443,737.126,353.446Zm11.517-2.932c.409-1.677,1.06-3.294,1.624-4.982h-3.932c.165,1.359.346,2.635.462,3.918a5.169,5.169,0,0,1-.112,1.458,1.393,1.393,0,0,1-1.631,1.293c-.922-.122-1.22-.764-1.259-1.662-.053-1.251-.2-2.5-.355-3.746a1.278,1.278,0,0,0-1.668-1.253,13.59,13.59,0,0,1-1.889.015c.183.443.295.764.445,1.067a39.782,39.782,0,0,1,3.765,11.963c.109.745.322,1.09,1.132,1.033,1.015-.072,2.037-.032,3.056-.04.12.021.24.047.36.063,2.49.335,2.543.271,3.127-2.218a39.4,39.4,0,0,1,4.366-10.962c.144-.245.284-.494.41-.748a2.083,2.083,0,0,0,0-.509,8.165,8.165,0,0,0-1.918.708,6.669,6.669,0,0,0-3.11,5.641c0,1.425-.485,1.863-1.931,1.766A2.315,2.315,0,0,1,748.643,350.513Zm23.4,11.266a12.112,12.112,0,0,1-8.057-2.194l-.953-1.733c-.783-3.713-2.864-5.113-6.561-4.387a.894.894,0,0,0-.576.481c-.284.8-.494,1.629-.732,2.446a5.374,5.374,0,0,0-.407,1.514,5.126,5.126,0,0,1-1.595,3.825,6.2,6.2,0,0,1-3.948.947c-3.745-.12-7.493-.194-11.239-.162a2.237,2.237,0,0,0-1.69,1.043c-.225.488.2,1.279.346,1.937a5.97,5.97,0,0,0,1.547.524c1.468.079,2.942.05,4.414.044,1.022,0,1.8.337,1.91,1.456.092.917-.695,1.526-1.944,1.547-1.39.023-2.78-.012-4.17.013a2.137,2.137,0,0,0-2.357,2.107,2.179,2.179,0,0,0,2.335,2.15c1.349.026,2.7,0,4.048.009s2.106.544,2.1,1.508-.721,1.434-2.146,1.439c-1.309,0-2.617-.012-3.925.005a2.083,2.083,0,1,0,.034,4.114c2.085.02,4.17,0,6.256.009,1.3.006,1.983.535,1.962,1.489-.021.918-.749,1.448-2.025,1.456-1.676.01-3.354-.028-5.028.026a1.906,1.906,0,0,0-1.931,1.959,1.855,1.855,0,0,0,1.871,2c5.187-.048,10.375-.1,15.558-.3a7.839,7.839,0,0,0,3.479-1.06c4.122-2.387,8.448-3.893,13.426-3.544v-20.67Zm-6.318,58.166c5.1-4.093,7.886-9.375,7.8-15.995a17.541,17.541,0,0,0-2.894-9.593c-1.8-2.715-3.781-5.31-5.791-8.109l-2.141,1.076-1.02.416a27.448,27.448,0,0,1,2.332,4.949,14.144,14.144,0,0,1,.019,4.827c-.133,1.277-.958,1.849-1.864,1.552-1.066-.349-1.191-1.143-.99-2.168a6.894,6.894,0,0,0-.949-5.746,3.241,3.241,0,0,0-3.522-1.436,75.783,75.783,0,0,1-9.02.592,1.662,1.662,0,0,0-1.7,1.025,15.189,15.189,0,0,0-1.567,7.715c.055.96-.341,1.643-1.322,1.723-1,.082-1.443-.6-1.6-1.5a1.547,1.547,0,0,1-.03-.489c.334-2.248.665-4.5,1.027-6.741a6.479,6.479,0,0,1,.4-1.13l-.247-.238c-.624.615-1.477,1.123-1.825,1.867a27.139,27.139,0,0,0-1.57,4.585c-.3,1.133-.843,1.827-1.722,1.637-1.1-.239-1.37-1.041-1.231-2.055a13.144,13.144,0,0,1,2.31-6.271L736,388.91c-7.551,8.3-9.321,17.372-3.685,26.066a22.55,22.55,0,0,0,25.77,8.9A18.48,18.48,0,0,0,765.724,419.945Z" transform="translate(-726.163 -342.432)" fill="#2b4469"/>
        <path id="Path_8719" data-name="Path 8719" d="M772.8,485.625a20.094,20.094,0,0,1,1.25,19.4,22.645,22.645,0,0,1-9.368,10.2,5.067,5.067,0,0,0-.754.711,22.55,22.55,0,0,1-25.77-8.9c-5.636-8.694-3.867-17.765,3.685-26.066l2.594,1.526a13.144,13.144,0,0,0-2.31,6.271c-.139,1.014.126,1.816,1.231,2.055.879.19,1.424-.5,1.722-1.637a27.145,27.145,0,0,1,1.57-4.585c.348-.744,1.2-1.253,1.825-1.867l.247.238a6.483,6.483,0,0,0-.4,1.13c-.362,2.244-.693,4.493-1.027,6.741a1.549,1.549,0,0,0,.029.489c.161.9.607,1.586,1.6,1.5.981-.081,1.377-.763,1.322-1.724a15.189,15.189,0,0,1,1.567-7.715,1.662,1.662,0,0,1,1.7-1.025,75.784,75.784,0,0,0,9.02-.592,3.241,3.241,0,0,1,3.522,1.436,6.894,6.894,0,0,1,.949,5.746c-.2,1.025-.076,1.819.99,2.168.906.3,1.731-.276,1.864-1.552a14.148,14.148,0,0,0-.019-4.827,27.45,27.45,0,0,0-2.332-4.949l1.02-.416C769.958,481.461,771.491,483.474,772.8,485.625Zm-19.83,15.124a1.371,1.371,0,0,0,1.578-1.352,1.917,1.917,0,0,1,1.363-1.831,1.782,1.782,0,0,1,2.234,1.217,1.716,1.716,0,0,1-1.031,2.208,3.2,3.2,0,0,1-1.067.219c-2.115.206,1.206,2.064.777,4.059-.446,2.075-4.62,3.762-2.777,4.927a2.477,2.477,0,0,1,.864,1.251c.268.782.668,1.338,1.537,1.308s1.25-.557,1.434-1.4a1.974,1.974,0,0,1,.831-1.126,5.032,5.032,0,0,0,2.472-3.619c.187-1.117-.293-1.946-1.222-2.054-1.055-.122-1.53.475-1.7,1.478-.213,1.257-1.038,1.959-2.06,1.785a1.757,1.757,0,0,1-1.617-1.844c-.018-1.075.673-1.694,2-1.833,2.394-.25.255-2.963.706-5.172.412-2.017,3.24-2.774,1.232-3.991-.314-.19-.425-.687-.7-.981-.43-.469-.91-1.225-1.378-1.233a1.913,1.913,0,0,0-1.414,1.157,2,2,0,0,1-1.088,1.3,4.558,4.558,0,0,0-2.318,3.815C751.636,500.067,752.021,500.672,752.966,500.75Z" transform="translate(-731.997 -434.493)" fill="#f9cf1c"/>
        <path id="Path_8720" data-name="Path 8720" d="M756.866,394.016a5.968,5.968,0,0,0,1.547.524c1.468.079,2.942.051,4.414.044,1.022,0,1.8.337,1.91,1.456.092.917-.695,1.526-1.944,1.546-1.39.023-2.78-.012-4.17.013a2.136,2.136,0,0,0-2.357,2.107,2.179,2.179,0,0,0,2.335,2.15c1.349.026,2.7,0,4.048.009s2.106.544,2.1,1.508-.721,1.434-2.146,1.439c-1.309,0-2.617-.012-3.925.005a2.083,2.083,0,1,0,.034,4.114c2.085.02,4.17,0,6.255.009,1.3.006,1.984.535,1.962,1.489-.021.918-.749,1.449-2.025,1.456-1.676.01-3.354-.028-5.028.026a1.906,1.906,0,0,0-1.931,1.959,1.855,1.855,0,0,0,1.871,2c5.187-.048,10.375-.1,15.558-.3a7.839,7.839,0,0,0,3.479-1.06c4.122-2.387,8.448-3.892,13.426-3.544V393.263a33.51,33.51,0,0,1-4.549-.632c-2.416-.664-3.325-1.988-3.508-4.526l-.953-1.733c-.338-.129-.669-.279-1.013-.383a30.257,30.257,0,0,0-3.677-1.044,19.423,19.423,0,0,0-3.179-.033,5.372,5.372,0,0,0-.407,1.514,5.127,5.127,0,0,1-1.595,3.825c.188,1.329.068,2.69-1.219,3.305a7.609,7.609,0,0,1-3.1.421C765.008,394.027,760.937,394.009,756.866,394.016Z" transform="translate(-746.398 -370.952)" fill="#f7b590"/>
        <path id="Path_8721" data-name="Path 8721" d="M828.169,477.179c1.429,2.076,2.963,4.089,4.268,6.24a20.1,20.1,0,0,1,1.25,19.4,22.645,22.645,0,0,1-9.368,10.2,5.066,5.066,0,0,0-.754.711A18.48,18.48,0,0,0,831.2,509.8c5.1-4.093,7.886-9.375,7.8-15.995a17.542,17.542,0,0,0-2.894-9.593c-1.8-2.715-3.781-5.31-5.791-8.109Z" transform="translate(-791.638 -432.287)" fill="#f9cf1c"/>
        <path id="Path_8722" data-name="Path 8722" d="M777.724,359.624a2.315,2.315,0,0,1-.946-2.8c.409-1.677,1.06-3.294,1.624-4.982h-3.932c.165,1.359.346,2.635.462,3.918a5.171,5.171,0,0,1-.112,1.458,1.393,1.393,0,0,1-1.631,1.293c-.922-.122-1.22-.764-1.259-1.662-.053-1.251-.2-2.5-.355-3.746a1.278,1.278,0,0,0-1.668-1.253,13.584,13.584,0,0,1-1.889.015c.183.443.295.764.445,1.067a39.784,39.784,0,0,1,3.765,11.963c.109.745.322,1.09,1.132,1.033,1.014-.072,2.037-.032,3.056-.04Q777.07,362.753,777.724,359.624Z" transform="translate(-754.298 -348.738)" fill="#f9cf1c"/>
        <path id="Path_8723" data-name="Path 8723" d="M757.258,405.075c4.071-.007,8.142.011,12.212-.038a7.608,7.608,0,0,0,3.1-.421c1.287-.616,1.407-1.977,1.219-3.305a6.2,6.2,0,0,1-3.948.947c-3.745-.12-7.493-.194-11.239-.162a2.237,2.237,0,0,0-1.69,1.043C756.686,403.627,757.116,404.418,757.258,405.075Z" transform="translate(-746.789 -382.011)" fill="#e2a688"/>
        <path id="Path_8724" data-name="Path 8724" d="M794.944,359l-1.309,6.257c.12.021.24.047.36.063,2.49.335,2.543.271,3.127-2.218a39.4,39.4,0,0,1,4.366-10.962c.144-.245.284-.494.41-.748a2.083,2.083,0,0,0,0-.509,8.165,8.165,0,0,0-1.918.708,6.669,6.669,0,0,0-3.11,5.641C796.871,358.656,796.39,359.094,794.944,359Z" transform="translate(-771.518 -348.112)" fill="#f9cf1c"/>
        <path id="Path_8725" data-name="Path 8725" d="M841.551,394.762c.184,2.538,1.092,3.862,3.508,4.526a33.521,33.521,0,0,0,4.549.632v-2.964A12.112,12.112,0,0,1,841.551,394.762Z" transform="translate(-803.728 -377.609)" fill="#e3a788"/>
        <path id="Path_8726" data-name="Path 8726" d="M814.636,378.639a19.423,19.423,0,0,1,3.179.033,30.257,30.257,0,0,1,3.677,1.044c.345.1.676.254,1.013.383-.783-3.713-2.864-5.113-6.561-4.387a.894.894,0,0,0-.576.481C815.084,376.995,814.874,377.822,814.636,378.639Z" transform="translate(-785.635 -364.679)" fill="#e1a688"/>
        <path id="Path_8727" data-name="Path 8727" d="M760.381,378.979c-.542-2.951-.542-2.951-3.514-2.948H755.53a4.49,4.49,0,0,0,1.643,3.279Z" transform="translate(-745.904 -365.018)" fill="#e2a688"/>
        <path id="Path_8728" data-name="Path 8728" d="M763.75,385.025l-3.208.331,3.2,1.126.268-.361Z" transform="translate(-749.273 -371.064)" fill="#ecaf8e"/>
        <path id="Path_8729" data-name="Path 8729" d="M795.57,526.49c-.007,1.027-.392,1.631-1.337,1.709a1.371,1.371,0,0,1-1.578-1.352,1.917,1.917,0,0,0-1.363-1.831,1.782,1.782,0,0,0-2.234,1.217,1.716,1.716,0,0,0,1.031,2.208,3.207,3.207,0,0,0,1.067.219,4.808,4.808,0,0,1,2,8.986,2.476,2.476,0,0,0-.864,1.251c-.268.782-.668,1.338-1.537,1.308s-1.25-.557-1.434-1.4a1.973,1.973,0,0,0-.831-1.126,5.033,5.033,0,0,1-2.472-3.619c-.187-1.117.293-1.946,1.222-2.054,1.055-.122,1.53.475,1.7,1.478.213,1.257,1.038,1.959,2.06,1.785a1.757,1.757,0,0,0,1.617-1.844c.018-1.075-.673-1.694-2-1.833a4.921,4.921,0,0,1-4.564-3.945,4.975,4.975,0,0,1,2.627-5.218c.313-.19.425-.687.7-.981.43-.469.91-1.225,1.378-1.233a1.913,1.913,0,0,1,1.414,1.157,2,2,0,0,0,1.088,1.3A4.557,4.557,0,0,1,795.57,526.49Z" transform="translate(-766.359 -461.942)" fill="#2c4467"/>
      </g>
    </g>
  </g>
</svg>
