<svg xmlns="http://www.w3.org/2000/svg" width="91.284" height="86.201" viewBox="0 0 91.284 86.201">
  <g id="Group_20815" data-name="Group 20815" transform="translate(-663.04 -355.921)">
    <g id="Group_20813" data-name="Group 20813" transform="translate(656.65 355.921)">
      <path id="Path_8675" data-name="Path 8675" d="M731.8,379.869q6.245,0,12.489,0a6.408,6.408,0,0,1,6.668,6.67c.008,3.059,0,6.118,0,9.327h-1.329q-33.871,0-67.742,0c-.432,0-.864.024-1.3.037l-.008-.085c0-3.188-.033-6.377.023-9.565a7.6,7.6,0,0,1,.5-2.4c.821-2.265,2.63-3.378,4.853-3.954l7.391-.033c.011,1.062.008,2.124.035,3.186a3.2,3.2,0,1,0,6.392,0c.028-1.061.025-2.124.036-3.186h9.533c.011,1.062.008,2.124.035,3.186a3.2,3.2,0,1,0,6.392,0c.028-1.061.025-2.124.036-3.186h9.533c.011,1.062.009,2.124.035,3.186a3.2,3.2,0,1,0,6.392,0C731.791,381.993,731.788,380.931,731.8,379.869Z" transform="translate(-674.182 -373.47)" fill="#006b99"/>
      <path id="Path_8676" data-name="Path 8676" d="M874.241,548.195a11.6,11.6,0,0,1,5.615,1.408,16,16,0,0,1-4.155,30.154,11.181,11.181,0,0,1-1.459.06,12.137,12.137,0,0,1-1.378-.151,15.826,15.826,0,0,1-10.624-7.72,15.093,15.093,0,0,1-2.051-9.481,15.735,15.735,0,0,1,5.827-10.836A14.78,14.78,0,0,1,874.241,548.195Zm8.285,15.82a9.6,9.6,0,1,0-9.58,9.588A9.645,9.645,0,0,0,882.526,564.015Z" transform="translate(-805.749 -496.83)" fill="#f9b301"/>
      <path id="Path_8678" data-name="Path 8678" d="M865.49,547.641a14.78,14.78,0,0,0-8.226,3.433,15.735,15.735,0,0,0-5.827,10.836,15.094,15.094,0,0,0,2.051,9.481,15.826,15.826,0,0,0,10.624,7.72,12.15,12.15,0,0,0,1.378.151,10.736,10.736,0,0,1-5.468-.348,16,16,0,0,1,5.028-31.442A1.663,1.663,0,0,1,865.49,547.641Z" transform="translate(-796.997 -496.276)" fill="#dc9702"/>
      <path id="Path_8680" data-name="Path 8680" d="M734.856,362.319c-.011,1.062-.007,2.124-.036,3.186a3.2,3.2,0,1,1-6.392,0c-.027-1.061-.024-2.124-.035-3.186.012-1.063.011-2.126.038-3.188a3.193,3.193,0,1,1,6.386,0C734.846,360.193,734.845,361.257,734.856,362.319Z" transform="translate(-709.231 -355.921)" fill="#f9cf1c"/>
      <path id="Path_8681" data-name="Path 8681" d="M794.739,362.319c-.011,1.062-.007,2.124-.036,3.186a3.2,3.2,0,1,1-6.392,0c-.027-1.061-.024-2.124-.035-3.186.012-1.063.011-2.126.038-3.188a3.193,3.193,0,1,1,6.386,0C794.729,360.193,794.728,361.257,794.739,362.319Z" transform="translate(-753.119 -355.921)" fill="#f9cf1c"/>
      <path id="Path_8682" data-name="Path 8682" d="M854.622,362.319c-.011,1.062-.007,2.124-.036,3.186a3.2,3.2,0,1,1-6.392,0c-.027-1.061-.024-2.124-.035-3.186.012-1.063.011-2.126.038-3.188a3.193,3.193,0,1,1,6.386,0C854.612,360.193,854.611,361.257,854.622,362.319Z" transform="translate(-797.006 -355.921)" fill="#f9cf1c"/>
      <path id="Path_8683" data-name="Path 8683" d="M740.575,470.195v-6.283h6.318v6.283Z" transform="translate(-718.158 -435.067)" fill="#505050"/>
      <path id="Path_8684" data-name="Path 8684" d="M788.481,470.195v-6.283H794.8v6.283Z" transform="translate(-753.268 -435.067)" fill="#505050"/>
      <path id="Path_8685" data-name="Path 8685" d="M836.388,470.195v-6.283h6.318v6.283Z" transform="translate(-788.379 -435.067)" fill="#505050"/>
      <path id="Path_8686" data-name="Path 8686" d="M884.322,470.181v-6.3h6.318v6.3Z" transform="translate(-823.509 -435.046)" fill="#505050"/>
      <path id="Path_8687" data-name="Path 8687" d="M699.122,511.825V518.1h-6.314v-6.279Z" transform="translate(-683.15 -470.182)" fill="#505050"/>
      <path id="Path_8688" data-name="Path 8688" d="M747.009,511.788v6.281h-6.3v-6.281Z" transform="translate(-718.257 -470.155)" fill="#f9cf1c"/>
      <path id="Path_8689" data-name="Path 8689" d="M788.61,511.689h6.284v6.318H788.61Z" transform="translate(-753.363 -470.082)" fill="#505050"/>
      <path id="Path_8690" data-name="Path 8690" d="M836.458,511.756h6.316v6.316h-6.316Z" transform="translate(-788.43 -470.131)" fill="#505050"/>
      <path id="Path_8691" data-name="Path 8691" d="M890.713,518.14h-6.276v-6.309h6.276Z" transform="translate(-823.594 -470.186)" fill="#505050"/>
      <path id="Path_8692" data-name="Path 8692" d="M699.054,559.663v6.316h-6.316v-6.316Z" transform="translate(-683.099 -505.242)" fill="#505050"/>
      <path id="Path_8693" data-name="Path 8693" d="M740.707,559.592h6.283v6.318h-6.283Z" transform="translate(-718.255 -505.19)" fill="#505050"/>
      <path id="Path_8694" data-name="Path 8694" d="M794.932,559.725v6.283h-6.318v-6.283Z" transform="translate(-753.366 -505.288)" fill="#505050"/>
      <path id="Path_8695" data-name="Path 8695" d="M836.454,559.651h4.475c-1.073,1.971-2.147,4-3.3,5.993-.159.274-.7.328-1.177.535Z" transform="translate(-788.427 -505.233)" fill="#525252"/>
      <path id="Path_8696" data-name="Path 8696" d="M891.429,581.092a9.6,9.6,0,1,1-9.562-9.605A9.647,9.647,0,0,1,891.429,581.092Zm-8.682,7.946a4.357,4.357,0,0,0,.09-.474c.089-1.527.092-1.5,1.6-1.726a.917.917,0,0,0,.571-.665c.057-1.262.027-2.528.027-3.793,0-2.487,0-2.487-2.5-2.487-1.856,0-1.857,0-1.686-1.872.008-.089.083-.172.183-.369h4a14.749,14.749,0,0,0-.024-1.79.809.809,0,0,0-.507-.537c-.5-.122-1.27.055-1.487-.229-.284-.371-.138-1.07-.186-1.627a1.275,1.275,0,0,0-.107-.3H880.89c-.03.217-.059.347-.065.478-.06,1.514-.062,1.489-1.544,1.674a.909.909,0,0,0-.618.617q-.074,2.844,0,5.69a.9.9,0,0,0,.62.61,16.467,16.467,0,0,0,2.692.015c.978-.081.859.529.874,1.141.016.653.024,1.174-.91,1.105-1.076-.079-2.162-.018-3.245-.018-.03.379-.056.576-.06.774-.032,1.51-.031,1.54,1.476,1.595.594.022.746.269.716.8-.026.448-.005.9-.005,1.389Z" transform="translate(-814.652 -513.908)" fill="#be7800"/>
      <path id="Path_8697" data-name="Path 8697" d="M900.28,593.67h-1.926c0-.49-.021-.941.005-1.389.03-.526-.122-.774-.716-.8-1.507-.055-1.507-.085-1.475-1.595,0-.2.03-.395.06-.774,1.083,0,2.169-.061,3.245.018.934.069.926-.453.91-1.105-.015-.611.1-1.222-.874-1.141a16.48,16.48,0,0,1-2.692-.015.9.9,0,0,1-.62-.61q-.074-2.844,0-5.69a.909.909,0,0,1,.618-.617c1.482-.185,1.484-.16,1.544-1.674.005-.131.034-.26.065-.478h1.829a1.281,1.281,0,0,1,.107.3c.048.557-.1,1.255.186,1.627.217.283.986.106,1.487.229a.81.81,0,0,1,.507.537,14.762,14.762,0,0,1,.024,1.79h-4c-.1.2-.175.28-.183.369-.172,1.872-.17,1.872,1.686,1.872,2.5,0,2.5,0,2.5,2.487,0,1.265.03,2.531-.028,3.793a.917.917,0,0,1-.571.665c-1.5.225-1.507.2-1.6,1.726A4.373,4.373,0,0,1,900.28,593.67Z" transform="translate(-832.185 -518.54)" fill="#f7b200"/>
    </g>
    <g id="Group_20814" data-name="Group 20814" transform="translate(704.244 372.418)">
      <path id="Path_8698" data-name="Path 8698" d="M872.553,457.854a17.912,17.912,0,0,1-.413,21.262,21.2,21.2,0,0,1-29.366,4.139c-6.409-4.766-9.07-11.137-7.5-19.088a19.793,19.793,0,0,1,4.111-8.122c1.3-1.7,2.784-3.311,2.881-5.675-2.188-2-2.391-3.734-.656-6.349a4.283,4.283,0,0,1-.044-5.8c-1.865-2.654-1.337-4.9,1.558-6.525a6.851,6.851,0,0,1-2.966-5.822c-.052-1.137.369-1.608,1.492-1.621s2.244,0,3.61,0c-.786-1.507-1.468-2.862-2.194-4.193-.755-1.383-.321-2.2,1.227-2.215,5.664-.065,11.328-.145,16.992-.165a2.5,2.5,0,0,1,1.662.584c.553.573.038,1.227-.31,1.8-.815,1.349-1.614,2.708-2.5,4.2.708,0,1.176-.027,1.639,0a5.072,5.072,0,0,1,4.491,2.854c.358.709.609,1.473.933,2.2a1.623,1.623,0,0,0,.474.718,6.355,6.355,0,0,0,4.577.932c0-.755-.008-1.453,0-2.15.016-1.138.42-1.546,1.582-1.55q4.749-.014,9.5,0c1.174,0,1.564.387,1.573,1.548.014,1.7,0,3.4,0,5.1q0,10.2,0,20.4c0,1.239-.348,1.661-1.452,1.667q-4.9.028-9.8,0c-.977-.006-1.378-.45-1.4-1.423-.016-.621,0-1.243,0-1.794h-3.4C870.208,454.631,871.407,456.224,872.553,457.854Zm-28.787-31.2h-1.089a3.658,3.658,0,0,0,1.339,2.672l2.612.917.219-.294-.216-.893C846.188,426.654,846.188,426.654,843.766,426.657Zm9.385-2.39c.334-1.366.864-2.684,1.323-4.06h-3.2c.134,1.107.282,2.147.377,3.192a4.221,4.221,0,0,1-.092,1.188,1.135,1.135,0,0,1-1.329,1.054c-.751-.1-.994-.623-1.026-1.354-.044-1.02-.164-2.038-.29-3.052a1.042,1.042,0,0,0-1.359-1.022,11.029,11.029,0,0,1-1.54.013c.149.361.24.623.362.869a32.427,32.427,0,0,1,3.068,9.748c.089.607.263.888.922.841.826-.058,1.66-.026,2.49-.033.1.017.2.038.294.051,2.029.273,2.072.221,2.548-1.807a32.109,32.109,0,0,1,3.558-8.932c.117-.2.231-.4.334-.61a1.7,1.7,0,0,0,0-.415,6.66,6.66,0,0,0-1.563.577,5.435,5.435,0,0,0-2.535,4.6c0,1.161-.4,1.518-1.574,1.439A1.886,1.886,0,0,1,853.151,424.267Zm29.233,29.3V429.732h-7.7v2.738q-.014,10.332-.024,20.664a2.629,2.629,0,0,0,.08.431h7.644Zm-10.165-20.117a9.87,9.87,0,0,1-6.565-1.787l-.777-1.412c-.638-3.026-2.333-4.167-5.347-3.575a.727.727,0,0,0-.469.392c-.231.653-.4,1.327-.6,1.994a4.357,4.357,0,0,0-.332,1.234,4.179,4.179,0,0,1-1.3,3.117,5.05,5.05,0,0,1-3.217.772c-3.051-.1-6.106-.158-9.158-.132a1.822,1.822,0,0,0-1.377.849c-.184.4.167,1.042.282,1.578a4.874,4.874,0,0,0,1.26.427c1.2.064,2.4.041,3.6.036.833,0,1.465.274,1.556,1.186.075.747-.566,1.244-1.584,1.26-1.133.018-2.266-.01-3.4.011a1.741,1.741,0,0,0-1.921,1.717,1.776,1.776,0,0,0,1.9,1.752c1.1.021,2.2,0,3.3.007s1.716.443,1.711,1.229-.587,1.169-1.749,1.173c-1.066,0-2.132-.01-3.2,0a1.7,1.7,0,1,0,.028,3.353c1.7.017,3.4,0,5.1.007,1.062,0,1.617.436,1.6,1.213-.017.748-.611,1.18-1.65,1.187-1.366.008-2.733-.023-4.1.021a1.554,1.554,0,0,0-1.574,1.6,1.511,1.511,0,0,0,1.525,1.632c4.227-.039,8.455-.084,12.678-.245a6.393,6.393,0,0,0,2.835-.864,18.728,18.728,0,0,1,10.94-2.888V433.447Zm-5.148,47.4a15.772,15.772,0,0,0,6.353-13.033,14.293,14.293,0,0,0-2.358-7.817c-1.467-2.212-3.081-4.327-4.719-6.608l-1.745.876-.831.34a22.34,22.34,0,0,1,1.9,4.033,11.531,11.531,0,0,1,.016,3.933c-.108,1.04-.78,1.506-1.519,1.265-.869-.284-.97-.931-.807-1.767a5.618,5.618,0,0,0-.773-4.682,2.641,2.641,0,0,0-2.87-1.17,61.708,61.708,0,0,1-7.351.483,1.353,1.353,0,0,0-1.385.836,12.376,12.376,0,0,0-1.277,6.287c.045.783-.278,1.339-1.077,1.4s-1.176-.493-1.307-1.226a1.272,1.272,0,0,1-.024-.4c.272-1.832.542-3.665.837-5.493a5.243,5.243,0,0,1,.327-.921l-.2-.194c-.509.5-1.2.915-1.487,1.522a22.1,22.1,0,0,0-1.28,3.737c-.243.923-.687,1.489-1.4,1.334-.9-.195-1.116-.849-1-1.675a10.714,10.714,0,0,1,1.882-5.11l-2.114-1.243c-6.154,6.764-7.6,14.156-3,21.241a18.376,18.376,0,0,0,21,7.251A15.057,15.057,0,0,0,867.07,480.845Z" transform="translate(-834.832 -417.682)" fill="#2b4469"/>
      <path id="Path_8699" data-name="Path 8699" d="M874.44,559.72a16.374,16.374,0,0,1,1.018,15.811,18.448,18.448,0,0,1-7.634,8.308,4.125,4.125,0,0,0-.614.58,18.376,18.376,0,0,1-21-7.251c-4.593-7.084-3.151-14.477,3-21.241l2.114,1.243a10.714,10.714,0,0,0-1.882,5.11c-.114.826.1,1.48,1,1.675.717.155,1.16-.41,1.4-1.334a22.1,22.1,0,0,1,1.28-3.737c.283-.607.978-1.021,1.487-1.522l.2.194a5.242,5.242,0,0,0-.327.921c-.295,1.828-.565,3.661-.837,5.493a1.271,1.271,0,0,0,.024.4c.131.733.494,1.293,1.307,1.226s1.122-.622,1.077-1.4a12.376,12.376,0,0,1,1.277-6.287,1.353,1.353,0,0,1,1.385-.836,61.7,61.7,0,0,0,7.351-.483,2.641,2.641,0,0,1,2.87,1.17,5.618,5.618,0,0,1,.773,4.682c-.164.835-.062,1.482.807,1.767.738.241,1.411-.225,1.519-1.265a11.532,11.532,0,0,0-.016-3.933,22.339,22.339,0,0,0-1.9-4.033l.831-.339C872.127,556.327,873.376,557.967,874.44,559.72ZM858.28,572.044a1.117,1.117,0,0,0,1.286-1.1,1.563,1.563,0,0,1,1.111-1.492,1.452,1.452,0,0,1,1.82.992,1.4,1.4,0,0,1-.84,1.8,2.62,2.62,0,0,1-.869.179c-1.724.167.982,1.681.633,3.308-.364,1.691-3.765,3.066-2.263,4.015a2.02,2.02,0,0,1,.7,1.019c.218.638.544,1.09,1.252,1.066s1.018-.454,1.169-1.137a1.608,1.608,0,0,1,.677-.918,4.1,4.1,0,0,0,2.015-2.949c.152-.911-.239-1.586-1-1.673-.86-.1-1.247.387-1.385,1.2-.174,1.024-.846,1.6-1.679,1.455a1.432,1.432,0,0,1-1.317-1.5c-.015-.876.548-1.38,1.633-1.493,1.95-.2.208-2.415.575-4.214.335-1.643,2.64-2.261,1-3.252-.256-.155-.346-.56-.567-.8-.35-.382-.741-1-1.123-1a1.558,1.558,0,0,0-1.152.943,1.627,1.627,0,0,1-.887,1.058,3.714,3.714,0,0,0-1.889,3.109C857.2,571.489,857.51,571.981,858.28,572.044Z" transform="translate(-841.193 -518.054)" fill="#f9cf1c"/>
      <path id="Path_8700" data-name="Path 8700" d="M865.424,467.571a4.875,4.875,0,0,0,1.26.427c1.2.064,2.4.041,3.6.036.833,0,1.465.274,1.556,1.186.075.747-.566,1.244-1.584,1.26-1.133.018-2.266-.01-3.4.011a1.741,1.741,0,0,0-1.921,1.717,1.776,1.776,0,0,0,1.9,1.752c1.1.021,2.2,0,3.3.007s1.716.443,1.711,1.229-.587,1.169-1.749,1.173c-1.066,0-2.132-.01-3.2,0a1.7,1.7,0,1,0,.028,3.353c1.7.017,3.4,0,5.1.007,1.061,0,1.617.436,1.6,1.213-.017.748-.611,1.18-1.65,1.187-1.366.008-2.733-.023-4.1.021a1.554,1.554,0,0,0-1.574,1.6,1.512,1.512,0,0,0,1.525,1.632c4.227-.039,8.455-.084,12.678-.245a6.393,6.393,0,0,0,2.835-.864,18.728,18.728,0,0,1,10.94-2.888V466.957a27.284,27.284,0,0,1-3.707-.515c-1.968-.541-2.709-1.62-2.859-3.688l-.777-1.412c-.275-.1-.545-.227-.826-.312a24.734,24.734,0,0,0-3-.851,15.8,15.8,0,0,0-2.59-.027,4.355,4.355,0,0,0-.332,1.234,4.179,4.179,0,0,1-1.3,3.117c.153,1.083.055,2.192-.994,2.694a6.2,6.2,0,0,1-2.525.343C872.059,467.58,868.741,467.565,865.424,467.571Z" transform="translate(-856.893 -448.776)" fill="#f7b590"/>
      <path id="Path_8701" data-name="Path 8701" d="M983.965,472.993q-.014,10.332-.024,20.664a2.628,2.628,0,0,0,.08.431H988.9c.01-6.357.03-12.714.023-19.071a2.09,2.09,0,0,0-2.167-2.026C985.829,472.955,984.9,472.99,983.965,472.993Z" transform="translate(-944.113 -458.205)" fill="#006b99" stroke="#006b99" stroke-width="1"/>
      <path id="Path_8702" data-name="Path 8702" d="M984.031,465.532c.932,0,1.864-.038,2.794,0a2.09,2.09,0,0,1,2.167,2.026c.007,6.357-.012,12.715-.023,19.071h2.761V462.794h-7.7Z" transform="translate(-944.179 -450.744)" fill="#006b99"/>
      <path id="Path_8703" data-name="Path 8703" d="M935.987,552.23c1.165,1.692,2.414,3.332,3.478,5.085a16.374,16.374,0,0,1,1.018,15.811,18.449,18.449,0,0,1-7.634,8.308,4.129,4.129,0,0,0-.614.58,15.057,15.057,0,0,0,6.221-3.2,15.773,15.773,0,0,0,6.353-13.034,14.294,14.294,0,0,0-2.358-7.817c-1.467-2.212-3.081-4.327-4.719-6.608Z" transform="translate(-906.218 -515.649)" fill="#f9cf1c"/>
      <path id="Path_8704" data-name="Path 8704" d="M884.6,433.428a1.887,1.887,0,0,1-.77-2.285c.334-1.366.864-2.684,1.323-4.059h-3.2c.134,1.107.282,2.147.377,3.192a4.221,4.221,0,0,1-.092,1.188,1.135,1.135,0,0,1-1.329,1.054c-.751-.1-.994-.623-1.026-1.354-.044-1.02-.164-2.038-.29-3.052a1.042,1.042,0,0,0-1.359-1.022,11.023,11.023,0,0,1-1.54.013c.149.361.24.623.362.869a32.427,32.427,0,0,1,3.068,9.748c.089.607.263.888.922.841.826-.059,1.66-.026,2.49-.033Z" transform="translate(-865.508 -424.558)" fill="#e8b441"/>
      <path id="Path_8705" data-name="Path 8705" d="M865.852,479.629c3.317-.006,6.635.009,9.952-.031a6.205,6.205,0,0,0,2.525-.343c1.049-.5,1.147-1.611.994-2.693a5.05,5.05,0,0,1-3.217.772c-3.051-.1-6.106-.158-9.158-.132a1.822,1.822,0,0,0-1.377.849C865.386,478.449,865.736,479.093,865.852,479.629Z" transform="translate(-857.321 -460.835)" fill="#e2a688"/>
      <path id="Path_8706" data-name="Path 8706" d="M903.372,432.745l-1.067,5.1c.1.017.2.038.294.051,2.029.273,2.072.221,2.548-1.807a32.1,32.1,0,0,1,3.558-8.932c.117-.2.231-.4.334-.61a1.7,1.7,0,0,0,0-.415,6.662,6.662,0,0,0-1.563.577,5.435,5.435,0,0,0-2.535,4.6C904.942,432.466,904.549,432.824,903.372,432.745Z" transform="translate(-884.282 -423.874)" fill="#f9cf1c"/>
      <path id="Path_8707" data-name="Path 8707" d="M950.221,470.013c.149,2.068.89,3.147,2.859,3.688a27.284,27.284,0,0,0,3.707.515V471.8A9.87,9.87,0,0,1,950.221,470.013Z" transform="translate(-919.4 -456.035)" fill="#e3a788"/>
      <path id="Path_8708" data-name="Path 8708" d="M923.306,453.314a15.8,15.8,0,0,1,2.59.027,24.739,24.739,0,0,1,3,.851c.281.085.551.207.826.312-.638-3.026-2.333-4.167-5.347-3.575a.727.727,0,0,0-.469.392C923.671,451.974,923.5,452.648,923.306,453.314Z" transform="translate(-899.674 -441.938)" fill="#e1a688"/>
      <path id="Path_8709" data-name="Path 8709" d="M868.153,453.685c-.441-2.4-.441-2.4-2.864-2.4H864.2a3.658,3.658,0,0,0,1.339,2.672Z" transform="translate(-856.356 -442.307)" fill="#e2a688"/>
      <path id="Path_8710" data-name="Path 8710" d="M871.826,460.276l-2.614.27,2.612.917.219-.294Z" transform="translate(-860.029 -448.899)" fill="#ecaf8e"/>
      <path id="Path_8711" data-name="Path 8711" d="M902.46,600.58c-.006.837-.319,1.329-1.09,1.392a1.117,1.117,0,0,1-1.286-1.1,1.563,1.563,0,0,0-1.111-1.492,1.452,1.452,0,0,0-1.82.992,1.4,1.4,0,0,0,.84,1.8,2.62,2.62,0,0,0,.87.179,3.918,3.918,0,0,1,1.63,7.323,2.018,2.018,0,0,0-.7,1.019c-.218.638-.544,1.09-1.252,1.066s-1.018-.454-1.169-1.137a1.608,1.608,0,0,0-.677-.918,4.1,4.1,0,0,1-2.015-2.949c-.153-.911.239-1.586,1-1.673.86-.1,1.247.387,1.386,1.2.174,1.024.846,1.6,1.679,1.455a1.432,1.432,0,0,0,1.317-1.5c.015-.876-.549-1.38-1.633-1.493a4.011,4.011,0,0,1-3.719-3.214,4.054,4.054,0,0,1,2.14-4.252c.256-.155.346-.56.567-.8.35-.382.741-1,1.123-1a1.559,1.559,0,0,1,1.152.943,1.626,1.626,0,0,0,.887,1.058A3.714,3.714,0,0,1,902.46,600.58Z" transform="translate(-878.657 -547.981)" fill="#2c4467"/>
    </g>
  </g>
</svg>
