<svg xmlns="http://www.w3.org/2000/svg" width="52.309" height="40.923" viewBox="0 0 52.309 40.923"><defs><style>.a{fill:#487184;}</style></defs><g transform="translate(0 0)"><path class="a" d="M52.025,77a1.145,1.145,0,0,0-.066-.3h0l-.029-.078a10.984,10.984,0,0,0-.7-1.9L45.436,59.081a7.771,7.771,0,0,0-2.867-3.9l-.206-1.464a1.151,1.151,0,0,0-.048-.2,5.656,5.656,0,0,0-5.386-3.854,5.725,5.725,0,0,0-5.667,5.586v.05l.049,2.265a7.7,7.7,0,0,0-1,2.929H22a7.7,7.7,0,0,0-1-2.926l.048-2.225V55.3a5.722,5.722,0,0,0-5.667-5.582A5.657,5.657,0,0,0,10,53.569a1.152,1.152,0,0,0-.047.2l-.207,1.415a7.772,7.772,0,0,0-2.867,3.9L1.085,74.726a10.986,10.986,0,0,0-.7,1.9L.355,76.7a1.146,1.146,0,0,0-.066.3,11.083,11.083,0,1,0,21.879,2.5c0-.12,0-.241-.006-.36A1.257,1.257,0,0,0,22.168,79l-.024-3.84h8.028l-.026,4.07c0,.019,0,.042,0,.061,0,.066,0,.134,0,.2A11.082,11.082,0,1,0,52.025,77ZM15.384,52.009a3.418,3.418,0,0,1,3.364,3.139,7.807,7.807,0,0,0-6.454-1.16A3.373,3.373,0,0,1,15.384,52.009ZM9.035,59.857l.015-.042a5.5,5.5,0,0,1,9.8-1.338,1.146,1.146,0,0,0,.071.11,5.381,5.381,0,0,1,.838,2.889L19.835,72.7A11.065,11.065,0,0,0,5.25,70.081ZM18.98,83.363a8.788,8.788,0,0,1-7.894,4.924h0A8.792,8.792,0,0,1,2.571,77.316l.622-1.681A8.788,8.788,0,1,1,18.98,83.363Zm11.2-10.492H22.129l-.011-1.72H30.2Zm.026-4.012H22.1l-.038-6.076h8.183ZM36.93,51.953A3.369,3.369,0,0,1,40.045,54a7.807,7.807,0,0,0-6.483,1.155A3.416,3.416,0,0,1,36.93,51.953Zm-4.38,9.514a5.5,5.5,0,0,1,8.273-4.688,1.156,1.156,0,0,0,.178.109,5.481,5.481,0,0,1,2.262,2.925c0,.015.01.029.015.043h0l3.785,10.224A11.065,11.065,0,0,0,32.48,72.7ZM43.4,88.012a8.792,8.792,0,0,1-2.176.274h0A8.789,8.789,0,1,1,49.12,75.634l.622,1.681A8.792,8.792,0,0,1,43.4,88.012Z" transform="translate(0 -49.661)"/></g><g transform="translate(3.233 21.984)"><path class="a" d="M36.054,241.429a7.853,7.853,0,1,0,7.853,7.853A7.853,7.853,0,0,0,36.054,241.429Zm0,13.413a5.56,5.56,0,1,1,5.56-5.56A5.56,5.56,0,0,1,36.054,254.842Z" transform="translate(-28.201 -241.429)"/></g><g transform="translate(33.235 21.984)"><path class="a" d="M297.764,241.429a7.853,7.853,0,1,0,7.853,7.853A7.853,7.853,0,0,0,297.764,241.429Zm0,13.413a5.56,5.56,0,1,1,5.56-5.56A5.56,5.56,0,0,1,297.764,254.842Z" transform="translate(-289.911 -241.429)"/></g></svg>